/* XPM */
static char *_fe979c8b1cf4d0f874d380556e9c8a5dXGIGnF7YBhmlUer[] = {
/* columns rows colors chars-per-pixel */
"32 32 2 1 ",
"  c None",
". c black",
/* pixels */
"                                ",
"      ....................      ",
"     ......................     ",
"     ..                  ..     ",
"     .. ................ ..     ",
"     ....              ....     ",
"     ....              ....     ",
"     ....              ....     ",
"     ....              ....     ",
"     .. ................ ..     ",
"     ..                  ..     ",
"     .. ..... .... ..... ..     ",
"     .. .   . .  . .   . ..     ",
"     .. .   . .  . .   . ..     ",
"     .. ..... .... ..... ..     ",
"     ..                  ..     ",
"     ..                  ..     ",
"     .. ..... .... ..... ..     ",
"     .. .   . .  . .   . ..     ",
"     .. .   . .  . .   . ..     ",
"     .. ..... .... ..... ..     ",
"     ..                  ..     ",
"     ..                  ..     ",
"     .. ..... .... ..... ..     ",
"     .. .   . .  . .   . ..     ",
"     .. .   . .  . .   . ..     ",
"     .. ..... .... ..... ..     ",
"     ..                  ..     ",
"     ..                  ..     ",
"     ......................     ",
"      ....................      ",
"                                "
};
